# xmcd
# 
# Track frame offsets:
#     150
#     20583
#     33108
#     49107
# 
# Disc length: 869
# 
# Revision: 0
# Processed by: cddbd v1.5.2PL0 Copyright (c) Steve Scherf et al.
# Submitted via: BonkEnc v1.0.8
# 
DISCID=27036304
DTITLE=Fire Deuce - Children of the Deuce
DYEAR=2005
DGENRE=
TTITLE0=Children of the Deuce
TTITLE1=Fast Food and Fornication
TTITLE2=Victory
TTITLE3=Keep it Steel
EXTD=
EXTT0=
EXTT1=
EXTT2=
EXTT3=
PLAYORDER=
